<?xml version="1.0" standalone="no"?>
<!DOCTYPE svg PUBLIC "-//W3C//DTD SVG 20010904//EN"
 "http://www.w3.org/TR/2001/REC-SVG-20010904/DTD/svg10.dtd">
<svg version="1.0" xmlns="http://www.w3.org/2000/svg"
 width="167.000000pt" height="41.000000pt" viewBox="0 0 167.000000 41.000000"
 preserveAspectRatio="xMidYMid meet">

<g transform="translate(0.000000,41.000000) scale(0.100000,-0.100000)"
fill="#000000" stroke="none">
<path d="M540 205 c0 -63 4 -105 10 -105 6 0 10 12 10 26 0 25 34 84 48 84 4
0 22 -25 41 -56 18 -30 35 -53 38 -50 3 3 -10 33 -30 66 l-36 60 31 35 c17 20
28 39 24 42 -3 4 -12 -1 -19 -9 -6 -9 -30 -39 -52 -68 l-40 -51 -3 65 c-5 107
-22 76 -22 -39z"/>
<path d="M762 208 l3 -103 63 -3 c38 -2 62 1 62 8 0 6 -23 10 -55 10 l-55 0 0
95 c0 59 -4 95 -10 95 -7 0 -10 -37 -8 -102z"/>
<path d="M970 204 c0 -67 4 -103 10 -99 13 8 13 205 0 205 -6 0 -10 -42 -10
-106z"/>
<path d="M1097 292 c-21 -23 -31 -97 -19 -137 12 -43 52 -63 93 -48 24 9 36
10 46 2 13 -12 19 2 6 15 -4 4 -6 38 -4 76 2 58 0 71 -18 89 -26 26 -82 28
-104 3z m85 -9 c13 -12 18 -31 18 -75 0 -53 -10 -73 -25 -48 -3 6 -11 10 -17
10 -6 0 -4 -8 5 -18 24 -27 21 -32 -18 -32 -43 0 -55 20 -55 94 0 45 4 58 22
70 29 20 47 20 70 -1z"/>
<path d="M1301 224 c4 -76 7 -88 28 -105 32 -26 67 -24 96 6 22 22 25 32 25
105 0 47 -4 80 -10 80 -6 0 -10 -34 -10 -83 0 -92 -8 -107 -55 -107 -47 0 -55
15 -55 107 0 54 -4 83 -11 83 -7 0 -10 -28 -8 -86z"/>
<path d="M1530 205 l0 -105 65 0 c37 0 65 4 65 10 0 6 -25 10 -55 10 l-55 0 0
39 0 40 53 4 52 3 -52 2 -53 2 0 45 0 44 58 4 57 3 -67 2 -68 2 0 -105z"/>
<path d="M0 133 c0 -64 4 -113 8 -108 5 6 25 33 45 61 32 45 37 59 37 108 l0
56 -45 0 -45 0 0 -117z"/>
<path d="M230 125 l-21 -35 32 -40 c30 -37 36 -40 81 -40 37 0 47 3 42 12 -11
19 -105 138 -109 138 -2 0 -13 -16 -25 -35z"/>
</g>
</svg>
